<svg aria-hidden="true" style="width:0;height:0;position:absolute;overflow:hidden" xmlns="http://www.w3.org/2000/svg"><defs><symbol id="icon-linux" viewBox="0 0 25 28"><path d="M10.359 6.422c-.313.031-.203.313-.375.313-.156.016-.125-.344.375-.313zm1.36.219c-.156.047-.172-.25-.453-.172.453-.203.609.109.453.172zm-5.485 6.671c-.141-.047-.109.234-.25.453-.109.203-.391.359-.172.391.078.016.297-.172.391-.391.078-.266.156-.406.031-.453zm13.36 5.61c0-.281-.609-.547-.859-.656.422-1.406.234-1.969-.047-3.297-.219-1-1.141-2.359-1.859-2.781.187.156.531.609.891 1.297.625 1.172 1.25 2.906.844 4.344-.156.562-.531.641-.781.656-1.094.125-.453-1.313-.906-3.266-.516-2.188-1.047-2.344-1.172-2.516-.641-2.844-1.344-2.562-1.547-3.625-.172-.953.828-1.734-.531-2-.422-.078-1.016-.5-1.25-.531s-.359-1.578.516-1.625c.859-.063 1.016.969.859 1.375-.25.406.016.562.438.422.344-.109.125-1.016.203-1.141-.219-1.313-.766-1.5-1.328-1.609-2.156.172-1.188 2.547-1.406 2.328-.313-.328-1.219-.031-1.219-.234.016-1.219-.391-1.922-.953-1.937-.625-.016-.875.859-.906 1.359-.047.469.266 1.453.5 1.375.156-.047.422-.359.141-.344-.141 0-.359-.344-.391-.75-.016-.406.141-.812.672-.797.609.016.609 1.234.547 1.281a2.867 2.867 0 0 0-.484.453c-.203.328-.594.422-.75.562-.266.281-.328.594-.125.703.719.406.484.875 1.484.906.656.031 1.141-.094 1.594-.234.344-.109 1.453-.344 1.687-.75.109-.172.234-.172.313-.125.156.078.187.375-.203.469-.547.156-1.094.453-1.594.641-.484.203-.641.281-1.094.359-1.031.187-1.797-.375-1.109.297.234.219.453.359 1.047.344 1.313-.047 2.766-1.625 2.906-.922.031.156-.406.344-.75.516-1.219.594-2.078 1.781-2.859 1.375-.703-.375-1.406-2.109-1.391-1.328.016 1.203-1.578 2.266-.844 3.641-.484.125-1.563 2.422-1.719 3.609-.094.688.063 1.531-.109 2-.234.688-1.297-.656-.953-2.297.063-.281 0-.344-.078-.203-.422.766-.187 1.844.156 2.594.141.328.5.469.766.75.547.625 2.703 2.219 3.078 2.609.484.453.344 1.516-.656 1.625.516.969 1.016 1.062 1 2.641.594-.313.359-1 .109-1.437-.172-.313-.391-.453-.344-.531.031-.047.344-.313.516-.109.531.594 1.531.703 2.594.562 1.078-.125 2.234-.5 2.766-1.359.25-.406.422-.547.531-.469.125.063.172.344.156.812-.016.5-.219 1.016-.359 1.437-.141.484-.187.812.281.828.125-.875.375-1.734.438-2.609.078-1-.641-2.844.141-3.766.203-.25.453-.281.797-.281.047-1.25 1.969-1.156 2.609-.641zM9.781 6c.063-.391-.125-.672-.219-.703-.187-.047-.156.234-.063.203.063 0 .141.094.109.234-.031.187-.016.313.125.313.016 0 .047 0 .047-.047zm6.547 3.078c-.063-.297-.281-.187-.531-.344-.297-.187-.359-.5-.469-.391-.328.359.406 1.109.719 1.172.187.031.328-.219.281-.438zM13.547 5.75c.016-.375-.313-.562-.391-.547-.203.016-.141.109-.047.141.125.031.25.25.281.484 0 .031.156-.031.156-.078zm.844-3.641c.016-.078-.187-.172-.328-.281-.125-.125-.25-.234-.375-.234-.313.031-.156.359-.203.516-.063.172-.297.313-.141.438.141.109.234-.172.531-.281.078-.031.438.016.516-.156zm8.828 20.954c1.922 1.188-.719 2.172-1.859 2.75-.891.453-2.078 1.453-2.516 1.875-.328.313-1.687.469-2.453.078-.891-.453-.422-1.172-1.797-1.219-.688-.016-1.359-.016-2.031-.016-.594.016-1.188.047-1.797.063-2.063.047-2.266 1.375-3.594 1.328-.906-.031-2.047-.75-4.016-1.156-1.375-.281-2.703-.359-2.984-.969s.344-1.297.391-1.891c.047-.797-.594-1.875-.125-2.281.406-.359 1.266-.094 1.828-.406.594-.344.844-.609.844-1.344.219.75-.016 1.359-.5 1.656-.297.187-.844.281-1.297.234-.359-.031-.578.016-.672.156-.141.172-.094.484.078.891s.375.672.344 1.172c-.016.5-.578 1.094-.484 1.516.031.156.187.297.578.406.625.172 1.766.344 2.875.609 1.234.313 2.516.875 3.313.766 2.375-.328 1.016-2.875.641-3.484-2.016-3.156-3.344-5.219-4.406-4.406-.266.219-.281-.531-.266-.828.047-1.031.562-1.406.875-2.203.594-1.516 1.047-3.25 1.953-4.141.672-.875 1.734-2.297 1.937-3.047-.172-1.625-.219-3.344-.25-4.844-.031-1.609.219-3.016 2.031-4C10.298.094 10.876 0 11.485 0c1.078-.016 2.281.297 3.047.859 1.219.906 1.984 2.828 1.891 4.203-.063 1.078.125 2.188.469 3.344.406 1.359 1.047 2.312 2.078 3.406 1.234 1.313 2.203 3.891 2.484 5.531.25 1.531-.094 2.484-.422 2.531-.5.078-.812 1.656-2.375 1.594-1-.047-1.094-.641-1.375-1.156-.453-.797-.906-.547-1.078.297-.094.422-.031 1.047.109 1.516.281.984.187 1.906.016 3.047-.328 2.156 1.516 2.562 2.75 1.531 1.219-1.016 1.484-1.172 3.016-1.703 2.328-.797 1.547-1.5.297-1.922-1.125-.375-1.172-2.266-.766-2.625.094 2.031 1.156 2.328 1.594 2.609z"/></symbol><symbol id="icon-playstation" viewBox="0 0 32 32"><path d="M11.98 3.461v23.397l5.22 1.681V8.916c0-.92.405-1.535 1.059-1.321.848.241 1.013 1.085 1.013 2.007v7.835c3.255 1.591 5.816-.003 5.816-4.204 0-4.316-1.501-6.233-5.917-7.769-1.743-.597-4.971-1.581-7.188-2.003zm6.208 21.656 8.395-3.033c.953-.344 1.101-.833.328-1.091-.781-.256-2.183-.185-3.143.164l-5.607 1.999v-3.18l.32-.113s1.601-.56 3.884-.82c2.261-.24 5.047.039 7.249.881 2.464.801 2.721 1.963 2.101 2.763s-2.163 1.381-2.163 1.381L18.16 28.211v-3.063zM2.411 24.8c-2.533-.727-2.952-2.224-1.803-3.095 1.068-.78 2.879-1.401 2.879-1.401l7.488-2.684v3.084l-5.367 1.963c-.94.361-1.1.843-.319 1.101.781.26 2.183.2 3.124-.16l2.584-.941v2.765c-.161.039-.341.059-.521.097-2.584.441-5.327.261-8.049-.639z"/></symbol><symbol id="icon-xbox" viewBox="0 0 32 32"><path d="M5.469 28.044A15.93 15.93 0 0 0 16 32c4.035 0 7.719-1.492 10.536-3.956C29.039 25.495 20.781 16.432 16 12.821 11.224 16.432 2.961 25.494 5.469 28.044zm14.88-19.208c3.333 3.948 9.979 13.751 8.101 17.216a15.92 15.92 0 0 0 3.549-10.047c0-4.453-1.82-8.483-4.76-11.381 0 0-.036-.029-.109-.056a1.109 1.109 0 0 0-.375-.06c-.789 0-2.647.579-6.407 4.328zM4.872 4.568c-.076.027-.109.055-.115.056A15.943 15.943 0 0 0 0 16.005c0 3.805 1.331 7.297 3.548 10.044C1.68 22.576 8.32 12.781 11.655 8.836c-3.76-3.751-5.621-4.327-6.408-4.327a.977.977 0 0 0-.375.061zM16 4.735s-3.927-2.297-6.993-2.407c-1.204-.044-1.939.393-2.028.452 2.86-1.919 5.9-2.78 9-2.78H16c3.112 0 6.14.861 9.021 2.78-.091-.061-.82-.496-2.027-.452-3.067.109-6.995 2.399-6.995 2.399z"/></symbol><symbol id="icon-nintendo" viewBox="0 0 32 32"><path d="M18.901 32H23.8c4.501 0 8.2-3.699 8.2-8.2V8.2C32 3.7 28.301 0 23.8 0h-5c-.099 0-.2.099-.2.2v31.6c-.001.101.1.2.301.2zM25 14.401c1.801 0 3.199 1.5 3.199 3.197 0 1.803-1.5 3.2-3.199 3.2-1.8 0-3.2-1.399-3.2-3.2-.1-1.799 1.4-3.197 3.2-3.197zM15.2 0h-7C3.7 0 0 3.7 0 8.2v15.6C0 28.301 3.7 32 8.2 32h7c.099 0 .2-.099.2-.199V.2c.001-.101-.1-.2-.2-.2zm-2.299 29.401H8.2A5.591 5.591 0 0 1 2.599 23.8V8.2c0-3.101 2.5-5.601 5.601-5.601h4.6zM5 9.599c0 1.7 1.3 3 3 3s3-1.3 3-3c0-1.697-1.3-3-3-3s-3 1.303-3 3z"/></symbol><symbol id="icon-ios" viewBox="0 0 32 32"><path d="M23 0H9C7.35 0 6 1.35 6 3v26c0 1.65 1.35 3 3 3h14c1.65 0 3-1.35 3-3V3c0-1.65-1.35-3-3-3zM12 1.5h8v1h-8v-1zM16 30a2 2 0 1 1-.001-3.999A2 2 0 0 1 16 30zm8-6H8V4h16v20z"/></symbol><symbol id="icon-mac" viewBox="0 0 32 32"><path d="M24.734 17.003c-.04-4.053 3.305-5.996 3.454-6.093-1.88-2.751-4.808-3.127-5.851-3.171-2.492-.252-4.862 1.467-6.127 1.467-1.261 0-3.213-1.43-5.28-1.392-2.716.04-5.221 1.579-6.619 4.012-2.822 4.897-.723 12.151 2.028 16.123 1.344 1.944 2.947 4.127 5.051 4.049 2.026-.081 2.793-1.311 5.242-1.311s3.138 1.311 5.283 1.271c2.18-.041 3.562-1.981 4.897-3.931 1.543-2.255 2.179-4.439 2.216-4.551-.048-.022-4.252-1.632-4.294-6.473zM20.705 5.11C21.822 3.755 22.576 1.875 22.37 0c-1.609.066-3.559 1.072-4.713 2.423-1.036 1.199-1.942 3.113-1.699 4.951 1.796.14 3.629-.913 4.747-2.264z"/></symbol><symbol id="icon-android" viewBox="0 0 32 32"><path d="M28 12c-1.1 0-2 .9-2 2v8c0 1.1.9 2 2 2s2-.9 2-2v-8c0-1.1-.9-2-2-2zM4 12c-1.1 0-2 .9-2 2v8c0 1.1.9 2 2 2s2-.9 2-2v-8c0-1.1-.9-2-2-2zm3 11a3 3 0 0 0 3 3v4c0 1.1.9 2 2 2s2-.9 2-2v-4h4v4c0 1.1.9 2 2 2s2-.9 2-2v-4a3 3 0 0 0 3-3V12H7v11zM24.944 10a8.994 8.994 0 0 0-4.051-6.551l1.001-2.001a1 1 0 0 0-1.789-.895l-1.004 2.009-.261-.104C17.947 2.161 16.992 2 16 2s-1.947.161-2.84.458l-.261.104L11.895.553a1 1 0 0 0-1.789.895l1.001 2.001A8.996 8.996 0 0 0 7.056 10v1H25v-1h-.056zM13 8a1 1 0 0 1-.002-2h.005a1 1 0 0 1-.002 2zm6 0a1 1 0 0 1-.002-2h.005a1 1 0 0 1-.002 2z"/></symbol><symbol id="icon-pc" viewBox="0 0 32 32"><path d="M12.882 15.997c-1.491-.766-2.94-1.155-4.309-1.155-.186 0-.373.006-.561.022-1.746.145-3.341.605-4.367.963-.272.1-.551.205-.838.322L0 25.88c1.928-.713 3.634-1.061 5.196-1.061 2.526 0 4.36.944 5.875 1.916.718-2.435 2.439-8.315 2.953-10.073a25.58 25.58 0 0 0-1.141-.666zm3.629 2.474-2.826 9.817c.838.48 3.659 2.002 5.819 2.002 1.744 0 3.695-.447 5.964-1.369l2.699-9.437c-1.832.591-3.59.891-5.233.891-2.998 0-5.097-.972-6.422-1.905zm-7.36-6.946c2.41.025 4.192.944 5.669 1.891l2.899-9.917c-.611-.35-2.213-1.222-3.371-1.519a10.558 10.558 0 0 0-2.413-.269c-1.619.03-3.387.436-5.403 1.244l-2.764 9.706c2.025-.764 3.77-1.136 5.378-1.136h.004zM32 6.191c-1.838.713-3.631 1.077-5.345 1.077-2.865 0-4.978-.994-6.347-1.949l-2.873 9.945c1.93 1.241 4.009 1.871 6.191 1.871 1.78 0 3.623-.427 5.483-1.271l-.006-.069.117-.028 2.779-9.576z"/></symbol><symbol id="icon-gamepad" viewBox="0 0 33 32"><path d="M23.014 4.459c-1.416 0-4.166 2-6.5 2s-5.25-2-6.5-2c-8.583 0-13.5 23.082-7.083 23.082 5.417 0 6.146-6.75 13.562-6.75 6 0 9.521 6.668 13.521 6.668 6.416 0 1.584-23-7-23zm-13.501 13a4.501 4.501 0 0 1 0-9 4.5 4.5 0 0 1 0 9zm11.938-2.5a1 1 0 1 1 0-2 1 1 0 1 1 0 2zm3.063 3a1 1 0 1 1 0-2 1 1 0 1 1 0 2zm0-6a1 1 0 1 1 0-2 1 1 0 1 1 0 2zm3 3a1 1 0 1 1 0-2 1 1 0 1 1 0 2zm-18.001-4.5a2.5 2.5 0 1 0 0 5 2.5 2.5 0 0 0 0-5z"/></symbol><symbol id="icon-close" viewBox="0 0 32 32"><path d="M31.708 25.708 22 16l9.708-9.708a1 1 0 0 0 0-1.414L27.122.292a1 1 0 0 0-1.414-.001L16 9.999 6.292.291a.998.998 0 0 0-1.414.001L.292 4.878a1 1 0 0 0 0 1.414L10 16 .292 25.708a.999.999 0 0 0 0 1.414l4.586 4.586a1 1 0 0 0 1.414 0L16 22l9.708 9.708a1 1 0 0 0 1.414 0l4.586-4.586a.999.999 0 0 0 0-1.414z"/></symbol><symbol id="icon-telegram" viewBox="0 0 32 32"><path d="M16 0C7.162 0 0 7.162 0 16s7.162 16 16 16 16-7.163 16-16S24.837 0 16 0zm7.863 10.969-2.625 12.369c-.181.881-.712 1.087-1.45.681l-4-2.956-1.919 1.869c-.225.219-.4.4-.8.4-.519 0-.431-.194-.606-.688L11.1 18.169l-3.956-1.231c-.856-.262-.862-.85.194-1.269l15.412-5.95c.7-.319 1.381.169 1.113 1.25z"/></symbol><symbol id="icon-github" viewBox="0 0 32 32"><path d="M16 .395c-8.836 0-16 7.163-16 16 0 7.069 4.585 13.067 10.942 15.182.8.148 1.094-.347 1.094-.77 0-.381-.015-1.642-.022-2.979-4.452.968-5.391-1.888-5.391-1.888-.728-1.849-1.776-2.341-1.776-2.341-1.452-.993.11-.973.11-.973 1.606.113 2.452 1.649 2.452 1.649 1.427 2.446 3.743 1.739 4.656 1.33.143-1.034.558-1.74 1.016-2.14-3.554-.404-7.29-1.777-7.29-7.907 0-1.747.625-3.174 1.649-4.295-.166-.403-.714-2.03.155-4.234 0 0 1.344-.43 4.401 1.64a15.353 15.353 0 0 1 4.005-.539c1.359.006 2.729.184 4.008.539 3.054-2.07 4.395-1.64 4.395-1.64.871 2.204.323 3.831.157 4.234 1.026 1.12 1.647 2.548 1.647 4.295 0 6.145-3.743 7.498-7.306 7.895.574.497 1.085 1.47 1.085 2.963 0 2.141-.019 3.864-.019 4.391 0 .426.288.925 1.099.768C27.421 29.457 32 23.462 32 16.395c0-8.837-7.164-16-16-16z"/></symbol><symbol id="icon-instagram" viewBox="0 0 32 32"><path d="M16 2.881c4.275 0 4.781.019 6.462.094 1.563.069 2.406.331 2.969.55a4.952 4.952 0 0 1 1.837 1.194 5.015 5.015 0 0 1 1.2 1.838c.219.563.481 1.412.55 2.969.075 1.688.094 2.194.094 6.463s-.019 4.781-.094 6.463c-.069 1.563-.331 2.406-.55 2.969a4.94 4.94 0 0 1-1.194 1.837 5.02 5.02 0 0 1-1.837 1.2c-.563.219-1.413.481-2.969.55-1.688.075-2.194.094-6.463.094s-4.781-.019-6.463-.094c-1.563-.069-2.406-.331-2.969-.55a4.952 4.952 0 0 1-1.838-1.194 5.02 5.02 0 0 1-1.2-1.837c-.219-.563-.481-1.413-.55-2.969-.075-1.688-.094-2.194-.094-6.463s.019-4.781.094-6.463c.069-1.563.331-2.406.55-2.969a4.964 4.964 0 0 1 1.194-1.838 5.015 5.015 0 0 1 1.838-1.2c.563-.219 1.412-.481 2.969-.55 1.681-.075 2.188-.094 6.463-.094zM16 0c-4.344 0-4.887.019-6.594.094-1.7.075-2.869.35-3.881.744-1.056.412-1.95.956-2.837 1.85a7.833 7.833 0 0 0-1.85 2.831C.444 6.538.169 7.7.094 9.4.019 11.113 0 11.656 0 16s.019 4.887.094 6.594c.075 1.7.35 2.869.744 3.881.413 1.056.956 1.95 1.85 2.837a7.82 7.82 0 0 0 2.831 1.844c1.019.394 2.181.669 3.881.744 1.706.075 2.25.094 6.594.094s4.888-.019 6.594-.094c1.7-.075 2.869-.35 3.881-.744 1.05-.406 1.944-.956 2.831-1.844s1.438-1.781 1.844-2.831c.394-1.019.669-2.181.744-3.881.075-1.706.094-2.25.094-6.594s-.019-4.887-.094-6.594c-.075-1.7-.35-2.869-.744-3.881a7.506 7.506 0 0 0-1.831-2.844A7.82 7.82 0 0 0 26.482.843C25.463.449 24.301.174 22.601.099c-1.712-.081-2.256-.1-6.6-.1z"/><path d="M16 7.781c-4.537 0-8.219 3.681-8.219 8.219s3.681 8.219 8.219 8.219 8.219-3.681 8.219-8.219A8.221 8.221 0 0 0 16 7.781zm0 13.55a5.331 5.331 0 1 1 0-10.663 5.331 5.331 0 0 1 0 10.663zM26.462 7.456a1.919 1.919 0 1 1-3.838 0 1.919 1.919 0 0 1 3.838 0z"/></symbol><symbol id="icon-undo2" viewBox="0 0 32 32"><path d="M23.808 32c3.554-6.439 4.153-16.26-9.808-15.932V24L2 12 14 0v7.762C30.718 7.326 32.58 22.519 23.808 32z"/></symbol><symbol id="icon-redo2" viewBox="0 0 32 32"><path d="M18 7.762V0l12 12-12 12v-7.932C4.039 15.74 4.638 25.561 8.192 32-.58 22.518 1.283 7.326 18 7.762z"/></symbol></defs></svg>